<svg width="262" height="410" viewBox="0 0 262 410" fill="none" xmlns="http://www.w3.org/2000/svg">
<path fill-rule="evenodd" clip-rule="evenodd" d="M320.434 318.544C286.71 340.009 250.601 319.5 247.451 259.86C246.47 241.474 246.662 223.523 246.662 223.523V226.752C246.662 224.976 248.043 223.529 249.752 223.523C264.432 223.535 265.974 223.653 280.613 223.964C335.102 225.113 354.577 296.83 320.434 318.544ZM303.01 198.214C281.312 197.643 279.274 197.779 249.764 197.786C248.048 197.786 246.662 196.345 246.662 194.563V197.792L246.65 3.18681C246.65 0.572704 244.623 -0.68157 242.107 0.374007L211.712 13.4632C202.065 17.611 194.235 29.0919 194.235 39.1261V194.563C194.235 196.345 192.848 197.792 191.132 197.792H171.861C170.146 197.792 168.753 196.351 168.753 194.563V36.3754C168.753 33.7551 166.709 32.4946 164.18 33.575L133.959 46.5897C124.318 50.7312 116.487 62.2122 116.487 72.2464V194.166C116.487 195.612 115.567 196.823 114.3 197.233C62.9842 192.545 37.9034 150.906 37.9034 92.8363C37.9034 90.1664 35.8472 88.9555 33.3187 90.0422L14.4304 97.9093C5.96646 102.653 -0.811836 112.892 0.0787869 123.448C5.43448 181.803 36.3791 221.381 116.487 223.262H113.379C115.095 223.262 116.487 224.703 116.487 226.485V406.641C116.487 409.261 118.538 410.515 121.066 409.435L151.281 396.42C160.923 392.279 168.753 380.798 168.753 370.764V226.454C168.771 224.69 170.152 223.262 171.855 223.262H191.162C192.86 223.281 194.235 224.709 194.235 226.485V223.262C194.235 223.262 194.665 252.135 194.904 263.051C196.189 325.504 254.57 368.168 321.504 332.893C390.004 296.83 366.561 199.878 303.01 198.214Z" fill="white"/>
</svg>
