<svg width="51" height="35" viewBox="0 0 51 35" fill="none" xmlns="http://www.w3.org/2000/svg">
<path fill-rule="evenodd" clip-rule="evenodd" d="M44.5936 0H6.48488C2.88217 0 0 2.83784 0 6.38514V22.3086C0 25.8559 2.88217 28.6937 6.08458 28.6937H16.1722C20.2553 28.6937 22.8972 35 25.2991 35C27.7009 35 30.8232 28.6937 34.4259 28.6937H44.5135C48.1162 28.6937 50.9984 25.8559 50.9984 22.3086V6.38514C51.0785 2.83784 48.1162 0 44.5936 0Z" fill="#D2356A"/>
<path d="M12.1584 9C12.6753 9 13.1183 9.15625 13.5614 9.46875C14.9644 10.4063 15.4075 12.4375 14.5952 14.0781C14.0044 15.25 11.6415 17.3594 9.57384 19H9.5H9.42616C7.35854 17.3594 4.99556 15.1719 4.40481 14.0781C3.59254 12.4375 4.0356 10.4063 5.43862 9.46875C5.88168 9.15625 6.32474 9 6.84164 9C7.72776 9 8.39235 9.15625 9.05694 9.85938L9.5 10.4844L9.94306 9.85938C10.6815 9.15625 11.3461 9 12.1584 9Z" fill="white"/>
<path d="M22.3594 10.6633H22.3285L20 12.4536V10.984L22.3471 9.18036H23.7121V18.8196H22.3594V10.6633Z" fill="white"/>
<path d="M29.135 19C28.0726 19 27.2388 18.548 26.6335 17.644C26.0324 16.7533 25.7318 15.5353 25.7318 13.99C25.7318 12.458 26.0344 11.2445 26.6397 10.3494C27.245 9.44979 28.0768 9 29.135 9C30.1932 9 31.025 9.44979 31.6303 10.3494C32.2274 11.2356 32.5259 12.4469 32.5259 13.9833C32.5259 15.5286 32.2274 16.7488 31.6303 17.644C31.0291 18.548 30.1974 19 29.135 19ZM29.135 17.7442C29.7691 17.7442 30.2612 17.4102 30.6112 16.7422C30.9571 16.0786 31.13 15.1612 31.13 13.99C31.13 12.8321 30.955 11.9214 30.605 11.2578C30.2509 10.5898 29.7609 10.2558 29.135 10.2558C28.5091 10.2558 28.0191 10.5921 27.665 11.2645C27.3109 11.9281 27.1338 12.8366 27.1338 13.99C27.1338 15.1612 27.3088 16.0764 27.6588 16.7355C28.0088 17.4079 28.5009 17.7442 29.135 17.7442Z" fill="white"/>
<path d="M33.8971 18.8196V9.18036H35.2806V13.7695H35.3362L39.0606 9.18036H40.7035L37.1706 13.4489L41 18.8196H39.2829L36.1947 14.4776L35.2806 15.6065V18.8196H33.8971Z" fill="white"/>
</svg>
